<?xml version="1.0" encoding="utf-8"?>
<!-- Generator: Adobe Illustrator 21.1.0, SVG Export Plug-In . SVG Version: 6.00 Build 0)  -->
<svg version="1.1" id="Ebene_1" xmlns="http://www.w3.org/2000/svg" xmlns:xlink="http://www.w3.org/1999/xlink" x="0px" y="0px"
	 viewBox="0 0 100 100" enable-background="new 0 0 100 100" xml:space="preserve">
<g>
	<path d="M49.9,45.6c7.7,0,14-6.3,14-14c0-5.6-3.4-10.5-8.2-12.7c-2.6,4.1-8.7,6.5-15.4,5.6c-0.7-0.1-1.4-0.2-2.1-0.4
		c-1.4,2.2-2.2,4.8-2.2,7.6C35.9,39.4,42.2,45.6,49.9,45.6z"/>
	<path d="M50,1C22.9,1,1,22.9,1,50c0,27.1,21.9,49,49,49c27.1,0,49-21.9,49-49C99,22.9,77.1,1,50,1z M49.9,13.5
		c10,0,18.1,8.1,18.1,18.1c0,10-8.1,18.1-18.1,18.1c-10,0-18.1-8.1-18.1-18.1C31.8,21.6,39.9,13.5,49.9,13.5z M76.8,80.3L75,64.9
		v-0.1c0-3.6-2.9-6.5-6.5-6.5H52.8l3.3,19.1c0.1,0.5,0,1-0.3,1.4L51.6,85c-0.4,0.5-0.9,0.8-1.6,0.8c-0.6,0-1.2-0.3-1.6-0.8l-4.3-6.1
		c-0.3-0.4-0.4-0.9-0.3-1.4l3.3-19.1H31.4c-3.6,0-6.5,2.9-6.5,6.5l0,0.2l-1.7,15.3c-1.3-1.2-2.6-2.4-3.7-3.8l1.4-11.9
		c0.1-5.8,4.8-10.5,10.6-10.5h37.2c5.8,0,10.5,4.7,10.6,10.5l1.4,11.9C79.4,77.9,78.1,79.1,76.8,80.3z"/>
</g>
</svg>
