<?xml version="1.0" encoding="utf-8"?>
<!-- Generator: Adobe Illustrator 21.1.0, SVG Export Plug-In . SVG Version: 6.00 Build 0)  -->
<svg version="1.1" id="Ebene_1" xmlns="http://www.w3.org/2000/svg" xmlns:xlink="http://www.w3.org/1999/xlink" x="0px" y="0px"
	 viewBox="0 0 100 100" enable-background="new 0 0 100 100" xml:space="preserve">
<path fill-rule="evenodd" clip-rule="evenodd" d="M50,1C22.9,1,1,22.9,1,50s21.9,49,49,49s49-21.9,49-49S77.1,1,50,1z M70.6,53.9
	H53.9v16.7c0,2.2-1.8,3.9-3.9,3.9s-3.9-1.8-3.9-3.9V53.9H29.4c-2.2,0-3.9-1.8-3.9-3.9s1.8-3.9,3.9-3.9h16.7V29.4
	c0-2.2,1.8-3.9,3.9-3.9s3.9,1.8,3.9,3.9v16.7h16.7c2.2,0,3.9,1.8,3.9,3.9S72.7,53.9,70.6,53.9z"/>
</svg>
