<?xml version="1.0" encoding="utf-8"?>
<!-- Generator: Adobe Illustrator 21.1.0, SVG Export Plug-In . SVG Version: 6.00 Build 0)  -->
<svg version="1.1" id="Ebene_1" xmlns="http://www.w3.org/2000/svg" xmlns:xlink="http://www.w3.org/1999/xlink" x="0px" y="0px"
	 viewBox="0 0 100 100" enable-background="new 0 0 100 100" xml:space="preserve">
<g>
	<path d="M35.4,96.2c-2.7,0-5.3-1.3-7-3.5L2.8,59.3c-3-3.9-2.2-9.4,1.7-12.4c3.9-3,9.4-2.2,12.4,1.7l17.9,23.5
		C46.2,54.7,69.3,20.7,84,6.3c3.5-3.4,9.1-3.3,12.5,0.1c3.4,3.5,3.3,9.1-0.1,12.5C78,36.9,43.2,91.6,42.8,92.1
		c-1.5,2.4-4.2,4-7.1,4.1C35.6,96.2,35.5,96.2,35.4,96.2L35.4,96.2z"/>
</g>
</svg>
