<?xml version="1.0" encoding="utf-8"?>
<!-- Generator: Adobe Illustrator 21.1.0, SVG Export Plug-In . SVG Version: 6.00 Build 0)  -->
<svg version="1.1" id="Ebene_1" xmlns="http://www.w3.org/2000/svg" xmlns:xlink="http://www.w3.org/1999/xlink" x="0px" y="0px"
	 viewBox="0 0 100 100" enable-background="new 0 0 100 100" xml:space="preserve">
<g>
	<path d="M79.1,62.1c-3-3-8-3-11.1,0l-18,18l-18-18c-3-3-8-3-11.1,0v0c-3,3-3,8,0,11.1l23.6,23.6c3,3,8,3,11.1,0l23.6-23.6
		C82.1,70.1,82.1,65.1,79.1,62.1L79.1,62.1z"/>
	<path d="M20.9,37.9c3,3,8,3,11.1,0l18-18l18,18c3,3,8,3,11.1,0v0c3-3,3-8,0-11.1L55.5,3.3c-3-3-8-3-11.1,0L20.9,26.8
		C17.9,29.9,17.9,34.9,20.9,37.9L20.9,37.9z"/>
</g>
</svg>
