<?xml version="1.0" encoding="utf-8"?>
<!-- Generator: Adobe Illustrator 21.1.0, SVG Export Plug-In . SVG Version: 6.00 Build 0)  -->
<svg version="1.1" id="Ebene_1" xmlns="http://www.w3.org/2000/svg" xmlns:xlink="http://www.w3.org/1999/xlink" x="0px" y="0px"
	 viewBox="0 0 100 100" enable-background="new 0 0 100 100" xml:space="preserve">
<g>
	<path d="M50,48.3c7.2,0,13-5.8,13-13c0-0.3,0-0.7,0-1c-0.4,0-0.7,0-1.1,0c-7,0-12.9-5.1-13.9-11.8c-0.1,0-0.2,0-0.2,0
		c-1,4.6-5,8.1-9.9,8.4c-0.5,1.4-0.8,2.8-0.8,4.4C37,42.5,42.9,48.3,50,48.3z"/>
	<path d="M50,1C22.9,1,1,22.9,1,50c0,27.1,21.9,49,49,49c27.1,0,49-21.9,49-49C99,22.9,77.1,1,50,1z M50,18.1
		c9.5,0,17.2,7.7,17.2,17.1c0,9.5-7.7,17.2-17.2,17.2c-9.5,0-17.1-7.7-17.1-17.2C32.9,25.8,40.6,18.1,50,18.1z M71.9,81.4L70.1,66
		v-0.1c0-3.6-2.9-6.5-6.5-6.5H52.8l3.3,19.1c0.1,0.5,0,1-0.3,1.4L51.5,86c-0.4,0.5-0.9,0.8-1.6,0.8c-0.6,0-1.2-0.3-1.6-0.8l-4.3-6.1
		c-0.3-0.4-0.4-0.9-0.3-1.4l3.3-19.1H36.2c-3.6,0-6.5,2.9-6.5,6.5l0,0.2l-1.7,15.3c-1.3-1.2-2.6-2.4-3.7-3.8l1.4-11.9
		c0.1-5.8,4.8-10.5,10.6-10.5h27.5c5.8,0,10.5,4.7,10.6,10.5l1.4,11.9C74.5,79,73.2,80.2,71.9,81.4z M79.5,53.2
		c-3.8-0.5-7-2.2-8.9-5.2c-1.9-3-2.1-6.6-0.9-10.2c3.8,0.5,7,2.2,8.9,5.2C80.5,45.9,80.7,49.6,79.5,53.2z"/>
</g>
</svg>
