<?xml version="1.0" encoding="UTF-8" standalone="no"?>
<svg id="svg2" xmlns:rdf="http://www.w3.org/1999/02/22-rdf-syntax-ns#" xmlns="http://www.w3.org/2000/svg" height="284px" width="284px" version="1.1" xmlns:cc="http://creativecommons.org/ns#" xmlns:dc="http://purl.org/dc/elements/1.1/" viewBox="0 0 284 284">
 <metadata id="metadata19">
  <rdf:RDF>
   <cc:Work rdf:about="">
    <dc:format>image/svg+xml</dc:format>
    <dc:type rdf:resource="http://purl.org/dc/dcmitype/StillImage"/>
    <dc:title>Schwarz/HEL-Pikto04-yy-sw-pos-all-01796</dc:title>
   </cc:Work>
  </rdf:RDF>
 </metadata>
<!-- Generator: Sketch 3.3.2 (12043) - http://www.bohemiancoding.com/sketch -->
 <title id="title4">Schwarz/HEL-Pikto04-yy-sw-pos-all-01796</title>
 <desc id="desc6">Created with Sketch.</desc>
 <path id="Fill-1" fill-rule="evenodd" d="m141.73 0.5332c-78.277 0-141.73 63.455-141.73 141.73-1.8948e-14 78.28 63.453 141.74 141.73 141.74 78.28 0 141.73-63.46 141.73-141.74 0-78.272-63.45-141.73-141.73-141.73zm3.69 52.395c12.52 0 22.68 10.152 22.68 22.676s-10.16 22.677-22.68 22.677-22.68-10.153-22.68-22.677 10.16-22.676 22.68-22.676zm-23.92 67.272h28.73c7.83 0 14.18 6.34 14.18 14.17v60.39h8.89c7.83 0 14.17 6.34 14.17 14.17s-6.34 14.18-14.17 14.18h-48.96c-7.83 0-14.18-6.35-14.18-14.18s6.35-14.17 14.18-14.17h11.72v-46.22h-14.56c-7.82 0-14.17-6.34-14.17-14.17s6.35-14.17 14.17-14.17z"/>
</svg>
