<?xml version="1.0" encoding="utf-8"?>
<!-- Generator: Adobe Illustrator 21.1.0, SVG Export Plug-In . SVG Version: 6.00 Build 0)  -->
<svg version="1.1" id="Ebene_1" xmlns="http://www.w3.org/2000/svg" xmlns:xlink="http://www.w3.org/1999/xlink" x="0px" y="0px"
	 viewBox="0 0 100 100" enable-background="new 0 0 100 100" xml:space="preserve">
<g>
	<path d="M47.3,25.9c1.7-2.4,2-5.4,0.8-8.1c-1-2.5-2.2-4.9-3.5-7.2c0,0-4.4-8.1-8.6-9.3c-1.4-0.4-3.4-0.5-6.7,0.9l15.2,26.4
		C45.6,27.8,46.5,26.9,47.3,25.9z"/>
	<path d="M82.2,75.7c-1.3-2.3-2.8-4.5-4.5-6.7c-1.7-2.4-4.5-3.6-7.4-3.4c-1.3,0.1-2.6,0.5-3.8,1l15.2,26.5c2.9-2.2,3.8-3.9,4.1-5.3
		C87,83.6,82.2,75.7,82.2,75.7z"/>
	<path d="M53.6,61.4c-2.8-3.8-5.2-7.1-6.3-9c-1.1-1.9-2.8-5.6-4.7-9.9c-1.9-4.3-2.9-7.7-2.1-9.7L23.8,5.3c-4,2.5-7.2,6.3-9,10.7
		C9.6,29.6,29.3,62.8,29.3,62.8s18.9,33.7,33.3,36c4.7,0.7,9.5-0.2,13.7-2.4L60.9,68.1C58.8,67.8,56.4,65.2,53.6,61.4z"/>
</g>
</svg>
