<?xml version="1.0" encoding="utf-8"?>
<!-- Generator: Adobe Illustrator 21.1.0, SVG Export Plug-In . SVG Version: 6.00 Build 0)  -->
<svg version="1.1" id="Ebene_1" xmlns="http://www.w3.org/2000/svg" xmlns:xlink="http://www.w3.org/1999/xlink" x="0px" y="0px"
	 viewBox="0 0 100 100" enable-background="new 0 0 100 100" xml:space="preserve">
<g>
	<rect x="32.9" y="43.8" width="9.8" height="9.8"/>
	<rect x="45.1" y="56.1" width="9.8" height="9.8"/>
	<rect x="32.9" y="56.1" width="9.8" height="9.8"/>
	<rect x="45.1" y="43.8" width="9.8" height="9.8"/>
	<path d="M50,1C22.9,1,1,22.9,1,50c0,27.1,21.9,49,49,49c27.1,0,49-21.9,49-49C99,22.9,77.1,1,50,1z M77,76.1H23.1
		c-1.4,0-2.5-1.1-2.5-2.4c0-1.4,1.1-2.5,2.5-2.5h2.5V32.5h12.2v-8.3c0-2.7,2.2-4.9,4.9-4.9h14.7c2.7,0,4.9,2.2,4.9,4.9v8.3h12.2
		v38.6H77c1.4,0,2.5,1.1,2.5,2.5C79.4,75,78.3,76.1,77,76.1z"/>
	<rect x="57.4" y="43.8" width="9.8" height="9.8"/>
	<rect x="57.4" y="56.1" width="9.8" height="9.8"/>
</g>
</svg>
