<?xml version="1.0" encoding="utf-8"?>
<!-- Generator: Adobe Illustrator 21.1.0, SVG Export Plug-In . SVG Version: 6.00 Build 0)  -->
<svg version="1.1" id="Ebene_1" xmlns="http://www.w3.org/2000/svg" xmlns:xlink="http://www.w3.org/1999/xlink" x="0px" y="0px"
	 viewBox="0 0 100 100" enable-background="new 0 0 100 100" xml:space="preserve">
<path d="M88.3,21.8c1,1,1.9,2.4,2.6,4.2s1.1,3.4,1.1,4.8v63c0,1.5-0.5,2.7-1.5,3.7S88.2,99,86.8,99H13.2c-1.5,0-2.7-0.5-3.7-1.5
	S8,95.2,8,93.8V6.2c0-1.5,0.5-2.7,1.5-3.7S11.8,1,13.2,1h49c1.5,0,3.1,0.4,4.8,1.1s3.1,1.6,4.2,2.6L88.3,21.8z M64,8.4V29h20.6
	c-0.4-1.1-0.8-1.8-1.2-2.2L66.2,9.6C65.8,9.2,65.1,8.8,64,8.4z M85,92V36H62.2c-1.5,0-2.7-0.5-3.7-1.5S57,32.2,57,30.8V8H15v84H85z
	 M56.9,59.6c1.2,0.9,2.7,2,4.6,3.1c2.2-0.3,4.3-0.4,6.4-0.4c5.4,0,8.6,0.9,9.7,2.7c0.6,0.8,0.6,1.8,0.1,2.8c0,0,0,0.1-0.1,0.1
	L77.5,68V68c-0.2,1.4-1.5,2.1-3.9,2.1c-1.8,0-3.8-0.4-6.3-1.1s-4.8-1.7-7.1-2.9C52.2,67,45,68.5,38.8,70.7
	C33.2,80.2,28.8,85,25.6,85c-0.5,0-1.1-0.1-1.5-0.4L22.7,84c0,0-0.1-0.1-0.3-0.3c-0.4-0.4-0.5-1-0.3-2c0.3-1.5,1.3-3.1,3.1-5
	s4.1-3.6,7.2-5.3c0.5-0.3,0.9-0.2,1.3,0.3c0.1,0.1,0.1,0.1,0.1,0.2c1.9-3.1,3.8-6.7,5.9-10.8c2.5-5,4.4-9.7,5.7-14.3
	c-0.9-3-1.4-5.9-1.7-8.7s-0.1-5.1,0.4-7c0.4-1.5,1.2-2.2,2.3-2.2h1.2c0.8,0,1.5,0.3,1.9,0.8c0.7,0.8,0.8,2,0.5,3.7
	c-0.1,0.2-0.1,0.4-0.2,0.4c0,0.1,0.1,0.3,0.1,0.4v1.6c-0.1,4.5-0.3,8-0.8,10.5C50.9,52.5,53.6,56.9,56.9,59.6z M25.4,82
	c1.9-0.9,4.4-3.8,7.5-8.6c-1.9,1.5-3.5,3-4.8,4.6C26.8,79.6,25.9,81,25.4,82z M47.2,31.7c-0.5,1.5-0.6,3.9-0.1,7.2
	c0-0.3,0.2-1.1,0.4-2.4c0-0.1,0.1-0.9,0.4-2.4c0-0.1,0.1-0.3,0.2-0.4c0,0-0.1-0.1-0.1-0.1s0-0.1,0-0.1s0,0,0-0.1
	c0-0.8-0.3-1.5-0.7-2c0,0,0,0.1-0.1,0.1V31.7z M40.4,67.9c4.9-2,10.1-3.4,15.5-4.4c-0.1,0-0.3-0.2-0.7-0.5s-0.7-0.6-0.9-0.7
	c-2.8-2.4-5.1-5.7-6.9-9.6c-1,3.1-2.5,6.7-4.5,10.8C41.7,65.4,40.9,66.9,40.4,67.9z M75.7,67c-0.9-0.9-3.4-1.3-7.7-1.3
	c2.8,1,5,1.5,6.8,1.5c0.5,0,0.8,0,1-0.1C75.8,67.1,75.8,67.1,75.7,67z"/>
</svg>
