<?xml version="1.0" encoding="utf-8"?>
<!-- Generator: Adobe Illustrator 21.1.0, SVG Export Plug-In . SVG Version: 6.00 Build 0)  -->
<svg version="1.1" id="Ebene_1" xmlns="http://www.w3.org/2000/svg" xmlns:xlink="http://www.w3.org/1999/xlink" x="0px" y="0px"
	 viewBox="0 0 100 100" enable-background="new 0 0 100 100" xml:space="preserve">
<path d="M61.1,69v11.5c0,2.4-0.7,3.7-2.1,3.7c-0.8,0-1.7-0.4-2.5-1.2V66.6c0.8-0.8,1.6-1.2,2.5-1.2C60.4,65.4,61.1,66.6,61.1,69z
	 M79.6,69.1v2.5h-4.9v-2.5c0-2.5,0.8-3.7,2.5-3.7S79.6,66.6,79.6,69.1z M26.8,57.2h5.9V52H15.5v5.1h5.7v31.1h5.5V57.2z M42.5,88.3
	h4.9v-27h-4.9v20.7c-1.1,1.5-2.1,2.3-3.1,2.3c-0.7,0-1-0.4-1.1-1.1c0-0.1-0.1-0.7-0.1-1.9V61.3h-4.9v21.4c0,1.8,0.1,3.1,0.4,4
	c0.4,1.3,1.5,2,3.2,2c1.8,0,3.6-1.1,5.6-3.3V88.3z M66,80.2V69.4c0-2.7-0.2-4.5-0.5-5.4c-0.6-2-1.9-3.1-3.9-3.1c-1.8,0-3.5,1-5.1,3
	V52h-4.9v36.3h4.9v-2.6c1.6,2,3.3,3,5.1,3c2,0,3.3-1,3.9-3C65.8,84.7,66,82.8,66,80.2z M84.5,79.6v-0.7h-5c0,1.9,0,3-0.1,3.3
	c-0.3,1.3-1,2-2.2,2c-1.7,0-2.5-1.3-2.5-3.8v-4.8h9.8v-5.6c0-2.9-0.5-5-1.5-6.3c-1.4-1.9-3.4-2.8-5.8-2.8c-2.5,0-4.4,0.9-5.9,2.8
	c-1,1.3-1.5,3.5-1.5,6.3v9.5c0,2.9,0.5,5,1.6,6.3c1.4,1.9,3.4,2.8,5.9,2.8c2.6,0,4.6-1,5.9-2.9c0.7-1,1-2,1.1-3
	C84.4,82.5,84.5,81.4,84.5,79.6z M51.2,29.7V18.2c0-2.5-0.8-3.8-2.4-3.8s-2.4,1.3-2.4,3.8v11.5c0,2.6,0.8,3.8,2.4,3.8
	S51.2,32.3,51.2,29.7z M90.5,70.8c0,8.5-0.5,14.9-1.4,19.1c-0.5,2.2-1.6,4-3.2,5.4s-3.5,2.3-5.6,2.5C73.6,98.6,63.5,99,50,99
	s-23.6-0.4-30.4-1.1c-2.1-0.2-4-1.1-5.6-2.5s-2.7-3.3-3.1-5.4C10,85.8,9.5,79.5,9.5,70.8c0-8.5,0.5-14.9,1.4-19.1
	c0.5-2.2,1.6-4,3.2-5.4s3.5-2.3,5.6-2.6c6.7-0.7,16.8-1.1,30.3-1.1s23.6,0.4,30.4,1.1c2.1,0.3,4,1.1,5.6,2.6s2.7,3.3,3.1,5.4
	C90,55.7,90.5,62.1,90.5,70.8z M35.9,1h5.6l-6.6,21.8v14.8h-5.5V22.8c-0.5-2.7-1.6-6.6-3.3-11.6C24.8,7.5,23.6,4.1,22.5,1h5.8
	l3.9,14.4L35.9,1z M56.2,19.2v9.6c0,3-0.5,5.1-1.5,6.5c-1.3,1.9-3.3,2.8-5.8,2.8c-2.4,0-4.4-0.9-5.7-2.8c-1-1.4-1.5-3.5-1.5-6.5
	v-9.6c0-2.9,0.5-5,1.5-6.4c1.4-1.9,3.3-2.8,5.7-2.8c2.5,0,4.4,0.9,5.8,2.8C55.7,14.2,56.2,16.3,56.2,19.2z M74.5,10.4v27.3h-5v-3
	c-1.9,2.3-3.8,3.4-5.6,3.4c-1.7,0-2.8-0.7-3.2-2c-0.3-0.9-0.4-2.2-0.4-4.1V10.4h5v20.1c0,1.2,0,1.8,0.1,1.9c0.1,0.8,0.5,1.2,1.1,1.2
	c1,0,2-0.8,3.1-2.4V10.4H74.5z"/>
</svg>
