<?xml version="1.0" encoding="utf-8"?>
<!-- Generator: Adobe Illustrator 21.1.0, SVG Export Plug-In . SVG Version: 6.00 Build 0)  -->
<svg version="1.1" id="Ebene_1" xmlns="http://www.w3.org/2000/svg" xmlns:xlink="http://www.w3.org/1999/xlink" x="0px" y="0px"
	 viewBox="0 0 100 100" enable-background="new 0 0 100 100" xml:space="preserve">
<path d="M92,79.8v-42c-1.2,1.3-2.4,2.5-3.8,3.6C78.5,48.9,70.7,55,64.9,59.8c-1.9,1.6-3.4,2.8-4.5,3.7s-2.7,1.8-4.7,2.7
	c-2,0.9-3.9,1.3-5.6,1.3h-0.1c-1.8,0-3.6-0.4-5.6-1.3s-3.6-1.8-4.7-2.7s-2.7-2.1-4.5-3.7c-5.8-4.8-13.5-11-23.3-18.5
	c-1.3-1.1-2.6-2.3-3.8-3.6v42c0,0.5,0.2,0.9,0.5,1.2s0.8,0.5,1.2,0.5h80.5c0.5,0,0.9-0.2,1.2-0.5S92,80.2,92,79.8z M92,22.3v-1.3
	l0-0.7l-0.2-0.7L91.5,19L91,18.6l-0.8-0.1H9.8c-0.5,0-0.9,0.2-1.2,0.5S8,19.8,8,20.2c0,6.1,2.7,11.3,8,15.5
	c7,5.5,14.3,11.3,21.9,17.3c0.2,0.2,0.9,0.7,1.9,1.6s1.9,1.6,2.5,2.1s1.4,1,2.4,1.7s1.9,1.2,2.8,1.5s1.6,0.5,2.4,0.5h0.1
	c0.7,0,1.5-0.2,2.4-0.5s1.8-0.8,2.8-1.5s1.8-1.2,2.4-1.7c0.6-0.5,1.5-1.2,2.5-2.1s1.7-1.4,1.9-1.6c7.6-6,14.9-11.8,21.9-17.3
	c2-1.6,3.8-3.7,5.5-6.3S92,24.4,92,22.3z M99,20.2v59.5c0,2.4-0.9,4.5-2.6,6.2s-3.8,2.6-6.2,2.6H9.8c-2.4,0-4.5-0.9-6.2-2.6
	S1,82.2,1,79.8V20.2c0-2.4,0.9-4.5,2.6-6.2s3.8-2.6,6.2-2.6h80.5c2.4,0,4.5,0.9,6.2,2.6S99,17.8,99,20.2z"/>
</svg>
