<?xml version="1.0" encoding="utf-8"?>
<!-- Generator: Adobe Illustrator 21.1.0, SVG Export Plug-In . SVG Version: 6.00 Build 0)  -->
<svg version="1.1" id="Ebene_1" xmlns="http://www.w3.org/2000/svg" xmlns:xlink="http://www.w3.org/1999/xlink" x="0px" y="0px"
	 viewBox="0 0 100 100" enable-background="new 0 0 100 100" xml:space="preserve">
<path d="M23.3,33.6v63.2H2.2V33.6H23.3z M24.6,14.1c0,3.1-1,5.7-3.2,7.8S16.3,25,12.7,25h-0.1c-3.5,0-6.3-1-8.4-3.1S1,17.2,1,14.1
	c0-3.1,1.1-5.8,3.3-7.8s5.1-3.1,8.6-3.1s6.4,1,8.5,3.1S24.6,10.9,24.6,14.1z M99,60.6v36.2H78V63c0-4.5-0.9-8-2.6-10.5
	c-1.7-2.5-4.4-3.8-8.1-3.8c-2.7,0-4.9,0.7-6.7,2.2c-1.8,1.5-3.2,3.3-4.1,5.5c-0.5,1.3-0.7,3-0.7,5.2v35.3h-21
	C35,79.9,35,66.1,35,55.6s0-16.8-0.1-18.9l-0.1-3.1h21v9.2h-0.1c0.9-1.4,1.7-2.6,2.6-3.6c0.9-1,2.1-2.1,3.6-3.3
	c1.5-1.2,3.4-2.1,5.6-2.8s4.6-1,7.3-1c7.3,0,13.1,2.4,17.5,7.2S99,51.3,99,60.6z"/>
</svg>
