<?xml version="1.0" encoding="utf-8"?>
<!-- Generator: Adobe Illustrator 21.1.0, SVG Export Plug-In . SVG Version: 6.00 Build 0)  -->
<svg version="1.1" id="Ebene_1" xmlns="http://www.w3.org/2000/svg" xmlns:xlink="http://www.w3.org/1999/xlink" x="0px" y="0px"
	 viewBox="0 0 100 100" enable-background="new 0 0 100 100" xml:space="preserve">
<path d="M29,80.1c0,2-0.7,3.7-2.1,5.1s-3.1,2.1-5.1,2.1c-2,0-3.7-0.7-5.1-2.2c-1.4-1.4-2.2-3.1-2.2-5.1c0-2,0.7-3.7,2.1-5.1
	s3.1-2.1,5.1-2.1s3.7,0.7,5.1,2.1S29,78.1,29,80.1z M57.3,91.7c0,2-0.7,3.7-2.1,5.1S52,99,50,99s-3.7-0.7-5.1-2.1s-2.1-3.1-2.1-5.1
	s0.7-3.7,2.1-5.1s3.1-2.1,5.1-2.1s3.7,0.7,5.1,2.1S57.3,89.7,57.3,91.7z M17.3,51.8c0,2-0.7,3.7-2.1,5.1s-3.1,2.1-5.1,2.1
	s-3.7-0.7-5.1-2.1s-2.1-3.1-2.1-5.1s0.7-3.7,2.1-5.1s3.1-2.1,5.1-2.1s3.7,0.7,5.1,2.1S17.3,49.8,17.3,51.8z M85.5,80.1
	c0,2-0.7,3.7-2.2,5.1c-1.4,1.4-3.1,2.2-5.1,2.2c-2,0-3.7-0.7-5.1-2.1S71,82.1,71,80.1s0.7-3.7,2.1-5.1s3.1-2.1,5.1-2.1
	s3.7,0.7,5.1,2.1S85.5,78.1,85.5,80.1z M30.8,23.6c0,2.5-0.9,4.6-2.7,6.4c-1.8,1.8-3.9,2.7-6.4,2.7s-4.6-0.9-6.4-2.7
	s-2.7-3.9-2.7-6.4s0.9-4.6,2.7-6.4s3.9-2.7,6.4-2.7s4.6,0.9,6.4,2.7C29.9,18.9,30.8,21.1,30.8,23.6z M97.2,51.8c0,2-0.7,3.7-2.1,5.1
	s-3.1,2.1-5.1,2.1s-3.7-0.7-5.1-2.1s-2.1-3.1-2.1-5.1s0.7-3.7,2.1-5.1s3.1-2.1,5.1-2.1s3.7,0.7,5.1,2.1S97.2,49.8,97.2,51.8z
	 M60.9,11.9c0,3-1.1,5.6-3.2,7.7c-2.1,2.1-4.7,3.2-7.7,3.2s-5.6-1.1-7.7-3.2s-3.2-4.7-3.2-7.7s1.1-5.6,3.2-7.7S47,1,50,1
	s5.6,1.1,7.7,3.2C59.8,6.3,60.9,8.9,60.9,11.9z M90.9,23.6c0,3.5-1.2,6.5-3.7,9s-5.5,3.7-9,3.7c-3.5,0-6.5-1.2-9-3.7s-3.7-5.5-3.7-9
	c0-3.5,1.2-6.5,3.7-9s5.5-3.7,9-3.7c3.5,0,6.5,1.2,9,3.7S90.9,20.1,90.9,23.6z"/>
</svg>
