<?xml version="1.0" encoding="utf-8"?>
<!-- Generator: Adobe Illustrator 21.1.0, SVG Export Plug-In . SVG Version: 6.00 Build 0)  -->
<svg version="1.1" id="Ebene_1" xmlns="http://www.w3.org/2000/svg" xmlns:xlink="http://www.w3.org/1999/xlink" x="0px" y="0px"
	 viewBox="0 0 100 100" enable-background="new 0 0 100 100" xml:space="preserve">
<path d="M94.9,81.4c0,5-1.7,9.2-5.1,12.6c-3.4,3.4-7.6,5.1-12.6,5.1c-5.8,0-10.8-2.1-15.1-6.4L12.4,42.8c-4.8-4.9-7.2-10.7-7.2-17.4
	c0-6.8,2.4-12.6,7.1-17.3S22.6,1,29.4,1C36.2,1,42,3.4,46.9,8.2l38.8,38.9c0.4,0.4,0.6,0.9,0.6,1.4c0,0.7-0.7,1.7-2,3
	c-1.3,1.3-2.3,2-3,2c-0.6,0-1-0.2-1.5-0.6L41.1,13.9C37.7,10.6,33.8,9,29.5,9c-4.5,0-8.4,1.6-11.5,4.8s-4.7,7.1-4.7,11.6
	c0,4.5,1.6,8.4,4.9,11.6L68,86.8c2.7,2.7,5.8,4,9.3,4c2.7,0,5-0.9,6.8-2.7s2.7-4.1,2.7-6.8c0-3.5-1.3-6.6-4-9.3L45.4,34.8
	c-1.1-1-2.4-1.5-3.8-1.5c-1.2,0-2.3,0.4-3.1,1.2s-1.2,1.8-1.2,3.1c0,1.4,0.5,2.6,1.6,3.8l26.3,26.3c0.4,0.4,0.6,0.9,0.6,1.4
	c0,0.7-0.7,1.7-2,3c-1.3,1.3-2.3,2-3,2c-0.5,0-1-0.2-1.4-0.6L33.1,47.1c-2.7-2.6-4-5.8-4-9.6c0-3.5,1.2-6.5,3.7-8.9s5.4-3.7,8.9-3.7
	c3.8,0,6.9,1.3,9.6,4l37.3,37.3C92.8,70.5,94.9,75.5,94.9,81.4z"/>
</svg>
