<?xml version="1.0" encoding="utf-8"?>
<!-- Generator: Adobe Illustrator 21.1.0, SVG Export Plug-In . SVG Version: 6.00 Build 0)  -->
<svg version="1.1" id="Ebene_1" xmlns="http://www.w3.org/2000/svg" xmlns:xlink="http://www.w3.org/1999/xlink" x="0px" y="0px"
	 viewBox="0 0 100 100" enable-background="new 0 0 100 100" xml:space="preserve">
<path d="M99,50C99,22.9,77.1,1,50,1S1,22.9,1,50s21.9,49,49,49S99,77.1,99,50z M53.6,71.5L34.9,52.8c-1.5-1.5-1.5-4,0-5.5l18.7-18.7
	c1.5-1.5,4-1.5,5.5,0c1.5,1.5,1.5,4,0,5.5L43.2,50l15.9,15.9c1.5,1.5,1.5,4,0,5.5C57.7,73,55.2,73,53.6,71.5z"/>
</svg>
