<?xml version="1.0" encoding="utf-8"?>
<!-- Generator: Adobe Illustrator 21.1.0, SVG Export Plug-In . SVG Version: 6.00 Build 0)  -->
<svg version="1.1" id="Ebene_1" xmlns="http://www.w3.org/2000/svg" xmlns:xlink="http://www.w3.org/1999/xlink" x="0px" y="0px"
	 viewBox="0 0 100 100" enable-background="new 0 0 100 100" xml:space="preserve">
<path d="M51.6,34.8c4.3,0,7.8-3.5,7.8-7.8c0-4.3-3.5-7.8-7.8-7.8s-7.8,3.5-7.8,7.8C43.8,31.3,47.3,34.8,51.6,34.8L51.6,34.8z"/>
<path d="M61.2,68.1h-3.1V47.3c0-2.7-2.2-4.9-4.9-4.9h-9.9c-2.7,0-4.9,2.2-4.9,4.9c0,2.7,2.2,4.9,4.9,4.9h5v16h-4.1
	c-2.7,0-4.9,2.2-4.9,4.9c0,2.7,2.2,4.9,4.9,4.9h16.9c2.7,0,4.9-2.2,4.9-4.9C66.1,70.3,63.9,68.1,61.2,68.1L61.2,68.1z"/>
<g>
	<path fill="#1D1D1B" d="M50,9c22.6,0,41,18.4,41,41S72.6,91,50,91S9,72.6,9,50S27.4,9,50,9 M50,1C22.9,1,1,22.9,1,50s21.9,49,49,49
		s49-21.9,49-49S77.1,1,50,1L50,1z"/>
</g>
</svg>
