<?xml version="1.0" encoding="utf-8"?>
<!-- Generator: Adobe Illustrator 21.1.0, SVG Export Plug-In . SVG Version: 6.00 Build 0)  -->
<svg version="1.1" id="Ebene_1" xmlns="http://www.w3.org/2000/svg" xmlns:xlink="http://www.w3.org/1999/xlink" x="0px" y="0px"
	 viewBox="0 0 100 100" enable-background="new 0 0 100 100" xml:space="preserve">
<path d="M1,50c0,27.1,21.9,49,49,49s49-21.9,49-49S77.1,1,50,1S1,22.9,1,50z M46.4,28.5l18.7,18.7c1.5,1.5,1.5,4,0,5.5L46.4,71.5
	c-1.5,1.5-4,1.5-5.5,0c-1.5-1.5-1.5-4,0-5.5L56.8,50L40.8,34.1c-1.5-1.5-1.5-4,0-5.5C42.3,27,44.8,27,46.4,28.5z"/>
</svg>
