<svg xmlns="http://www.w3.org/2000/svg" viewBox="0 0 177 33" version="1.1">
    <g stroke="none" stroke-width="1" fill="#9a0941" fill-rule="evenodd">
        <path d="M19.7,25.8 C19.7,30.7 22.3,32.4 25.9,32.4 C27.1,32.4 28.3,32.3 28.8,32.1 L28.8,27.2 C28.8,27.2 28.1,27.3 27.5,27.3 C25.8,27.3 25.5,26.5 25.5,25.1 L25.5,1.6 L19.7,1.6 L19.7,13.9 L6.6,13.9 L6.6,1.6 L0.8,1.6 L0.8,32.2 L6.6,32.2 L6.6,19.2 L19.7,19.2 L19.7,25.8 L19.7,25.8 Z"/>
        <path d="M47.8,17.7 L37.6,17.7 C37.6,14.6 39.5,12.1 42.9,12.1 C46.4,12.1 47.6,14.4 47.8,17.7 M53.6,19.7 C53.6,13 50.3,7.4 42.9,7.4 C35.6,7.4 31.7,13.5 31.7,20.2 C31.7,27 35.3,32.7 43.1,32.7 C47,32.7 50.5,31.4 52.9,28.2 L48.7,25.4 C47.4,26.9 45.7,28 43.1,28 C39.4,28 37.4,25.1 37.4,21.9 L53.3,21.9 C53.6,21 53.6,19.7 53.6,19.7"/>
        <path d="M58.9,25.8 C58.9,30.7 61.5,32.4 65,32.4 C66.2,32.4 67.4,32.3 67.9,32.1 L67.9,27.2 C67.9,27.2 67.2,27.3 66.6,27.3 C64.9,27.3 64.6,26.5 64.6,25.1 L64.6,0 L58.9,0 C58.9,0 58.9,25.8 58.9,25.8 L58.9,25.8 Z"/>
        <path d="M90.8,24.7 C90.8,22.4 89.9,20.4 88.2,19.3 C87.1,18.6 85.6,18.1 84.2,17.8 L80.1,17.1 C78.5,16.8 77.5,16.5 77.5,14.7 C77.5,12.7 79.3,12 81.3,12 C83.1,12 85.6,12.7 87.1,14 L90.2,10.1 C89.3,9.2 86.3,7.4 81.6,7.4 C76.6,7.4 71.9,10 71.9,15.2 C71.9,17.3 72.8,19.3 74.5,20.4 C75.4,21 76.3,21.4 78,21.7 L82.6,22.7 C84.3,23 85.3,23.7 85.3,25.1 C85.3,27.1 83.2,27.9 80.9,27.9 C77.9,27.9 75.2,26.6 74.1,25.6 L71.1,29.6 C72.2,30.6 75.4,32.6 80.3,32.6 C85.8,32.8 90.8,30.5 90.8,24.7"/>
        <path d="M120.1,27.5 C120.1,27.5 119.4,27.7 118.4,27.7 C117.5,27.7 116.9,27.3 116.9,26.2 L116.9,17.2 C116.9,11.1 113.2,7.5 106.9,7.5 C99.1,7.5 94.6,13.4 94.6,20.5 C94.6,28.8 99.3,32.8 105,32.8 C108.6,32.8 111,31.2 112.1,29.5 C112.6,31.1 114,32.6 116.6,32.6 C118.5,32.6 119.5,32.3 120.1,32 L120.1,27.5 L120.1,27.5 Z M111.2,25.7 C111.2,25.7 109.3,27.8 106.4,27.8 C102.8,27.8 100.6,25.3 100.6,20 C100.6,15.2 102.7,12.4 106.5,12.4 C109.7,12.4 111.2,14.3 111.2,17.5 C111.2,17.5 111.2,25.7 111.2,25.7 L111.2,25.7 Z"/>
        <path d="M130.5,11.2 C132.1,8.5 135.3,7.4 138.1,7.4 C143.2,7.4 146.4,11.1 146.4,16 L146.4,32.1 L140.6,32.1 L140.6,17.4 C140.6,14.6 139.6,12.9 136.5,12.9 C134.4,12.9 132,14.2 131.1,15.9 L131.1,32.3 L125.3,32.3 L125.3,14.8 C125.3,13.1 124.7,12.5 122.9,12.5 L121.9,12.5 L121.9,8 C122.9,7.7 124,7.6 125.4,7.6 C128.6,7.6 130.3,9 130.5,11.2"/>
        <path d="M176.8,27.5 C176.8,27.5 176.1,27.7 175.1,27.7 C174.2,27.7 173.6,27.3 173.6,26.2 L173.6,17.2 C173.6,11.1 169.9,7.5 163.6,7.5 C155.8,7.5 151.3,13.4 151.3,20.5 C151.3,28.8 156,32.8 161.7,32.8 C165.3,32.8 167.7,31.2 168.8,29.5 C169.3,31.1 170.7,32.6 173.3,32.6 C175.2,32.6 176.2,32.3 176.8,32 L176.8,27.5 L176.8,27.5 Z M168,25.7 C168,25.7 166.1,27.8 163.2,27.8 C159.6,27.8 157.4,25.3 157.4,20 C157.4,15.2 159.5,12.4 163.3,12.4 C166.5,12.4 168,14.3 168,17.5 L168,25.7 L168,25.7 L168,25.7 Z"/>
    </g>
</svg>
